<svg width="128" height="128" viewBox="0 0 128 128" xmlns="http://www.w3.org/2000/svg">
  <!-- 背景圆形 -->
  <circle cx="64" cy="64" r="60" fill="#6366f1" stroke="#4f46e5" stroke-width="2"/>
  
  <!-- 笔记本主体 -->
  <rect x="30" y="25" width="68" height="78" rx="4" fill="#ffffff" stroke="#e5e7eb" stroke-width="1"/>
  
  <!-- 笔记本装订线 -->
  <line x1="40" y1="25" x2="40" y2="103" stroke="#d1d5db" stroke-width="1"/>
  
  <!-- 笔记本内容线条 -->
  <line x1="48" y1="38" x2="80" y2="38" stroke="#9ca3af" stroke-width="1.5"/>
  <line x1="48" y1="48" x2="76" y2="48" stroke="#9ca3af" stroke-width="1.5"/>
  <line x1="48" y1="58" x2="78" y2="58" stroke="#9ca3af" stroke-width="1.5"/>
  <line x1="48" y1="68" x2="72" y2="68" stroke="#9ca3af" stroke-width="1.5"/>
  <line x1="48" y1="78" x2="75" y2="78" stroke="#9ca3af" stroke-width="1.5"/>
  <line x1="48" y1="88" x2="70" y2="88" stroke="#9ca3af" stroke-width="1.5"/>
  
  <!-- 标签元素 -->
  <rect x="75" y="32" width="18" height="8" rx="2" fill="#10b981"/>
  <rect x="75" y="44" width="16" height="8" rx="2" fill="#f59e0b"/>
  <rect x="75" y="56" width="20" height="8" rx="2" fill="#ef4444"/>
  
  <!-- 引用连接线 -->
  <path d="M85 70 Q90 75, 85 80" stroke="#6366f1" stroke-width="2" fill="none"/>
  <circle cx="85" cy="80" r="2" fill="#6366f1"/>
  
  <!-- 附件图标 -->
  <g transform="translate(52, 92)">
    <rect x="0" y="0" width="24" height="18" rx="2" fill="#f3f4f6" stroke="#d1d5db" stroke-width="1"/>
    <path d="M8 8 L12 4 L16 8 L12 12 Z" fill="#6366f1"/>
  </g>
</svg>